<?xml version="1.0" encoding="iso-8859-1"?>
<!-- Generator: Adobe Illustrator 19.0.0, SVG Export Plug-In . SVG Version: 6.00 Build 0)  -->
<svg xmlns="http://www.w3.org/2000/svg" xmlns:xlink="http://www.w3.org/1999/xlink" version="1.1" id="Capa_1" x="0px" y="0px" viewBox="0 0 496 496" style="enable-background:new 0 0 496 496;" xml:space="preserve">
<g>
	<g>
		<g>
			<rect x="262.66" y="104" width="16" height="16"/>
			<rect x="198.66" y="104" width="16" height="16"/>
			<path d="M238.66,160c-8.824,0-16-7.176-16-16h-16c0,17.648,14.352,32,32,32s32-14.352,32-32h-16     C254.66,152.824,247.484,160,238.66,160z"/>
			<path d="M402.628,441.048c-24.712-14.12-56.856-39.896-76.88-65.552c1.6,0.296,3.232,0.504,4.912,0.504c15.44,0,28-12.56,28-28     v-81.832c0-4.376-0.632-8.704-1.552-12.968c14.92-5.824,25.552-20.256,25.552-37.2c0-19.32-13.768-35.488-32.008-39.2     c0.008-0.264,0.008-0.536,0.008-0.8c0-9.128-1.016-19.328-8-27.296V104c0-57.344-46.656-104-104-104s-104,46.656-104,104v44.704     c-6.984,7.968-8,18.168-8,27.296c0,0.264,0,0.536,0.008,0.8c-18.24,3.712-32.008,19.88-32.008,39.2     c0,16.944,10.632,31.376,25.552,37.192c-0.92,4.272-1.552,8.592-1.552,12.976V348c0,15.44,12.56,28,28,28     c4.328,0,8.376-1.072,12.032-2.824c-1.2,21.104-10.552,41.408-68.152,75.968l-8.784,5.272l7.248,7.248     c1.184,1.184,25.496,24.704,77.656,32.088V496h32h3.312h28.688h8h80v-9.184c51.592-11.928,82.88-31.184,84.24-32.032     l11.344-7.096L402.628,441.048z M125.404,238.136c-8.656-3.632-14.744-12.184-14.744-22.136c0-13.232,10.768-24,23.504-24.016     l12.168,0.552l-2.76-10.464c-0.624-2.328-0.912-4.264-0.912-6.072c0-9.624,1.48-14.664,5.264-17.976l2.736-2.392V104     c0-48.52,39.48-88,88-88s88,39.48,88,88v51.632l2.736,2.392c3.784,3.312,5.264,8.352,5.264,17.976     c0,1.808-0.288,3.744-0.904,6.072l-2.76,10.464l10.816-0.432c0.456-0.008,0.896-0.064,0.848-0.104c13.232,0,24,10.768,24,24     c0,9.952-6.088,18.504-14.736,22.136c-1.656-3.304-3.536-6.496-5.76-9.464c-9.68-12.92-23.792-21.496-39.72-24.152l-19.784-3.296     v-11.712c14.688-13.192,24-32.264,24-53.512v-30.056C310.66,82.816,291.844,64,268.716,64c-11.2,0-21.736,4.36-29.656,12.288     l-0.4,0.4l-0.4-0.4C230.332,68.36,219.804,64,208.604,64c-23.128,0-41.944,18.816-41.944,41.944V136     c0,21.248,9.312,40.32,24,53.512v11.712l-19.776,3.296c-15.928,2.656-30.04,11.232-39.72,24.152     C128.94,231.64,127.06,234.832,125.404,238.136z M226.948,296.976c-7.928-7.928-12.288-18.464-12.288-29.664     c0-1.824,1.488-3.312,3.312-3.312c0.872,0,1.728,0.352,2.344,0.968l18.344,18.344l18.344-18.344     c1.904-1.912,5.656-0.352,5.656,2.344c0,11.2-4.36,21.736-12.288,29.664l-11.712,11.712L226.948,296.976z M227.348,320H174.66     v-40h25.44c2.368,10.624,7.648,20.4,15.536,28.288L227.348,320z M256.812,248.248c-4.192,0.552-8.08,2.368-11.12,5.408     l-7.032,7.032l-7.032-7.032c-3.04-3.04-6.928-4.856-11.12-5.408l-13.848-41.552V200.4c9.656,4.816,20.496,7.6,32,7.6     c11.504,0,22.344-2.784,32-7.6v6.296L256.812,248.248z M238.66,192c-30.88,0-56-25.12-56-56v-30.056     C182.66,91.64,194.3,80,208.604,80c6.928,0,13.44,2.696,18.344,7.6l11.712,11.712L250.372,87.6     c4.904-4.896,11.416-7.6,18.344-7.6c14.304,0,25.944,11.64,25.944,25.944V136C294.66,166.88,269.54,192,238.66,192z M158.66,256     v92c0,6.616-5.384,12-12,12c-6.616,0-12-5.384-12-12v-81.832c0-9.992,3.304-19.896,9.296-27.896     c7.208-9.616,17.704-15.992,29.56-17.968l19.712-3.288l11.976,35.92c-3.192,2.84-5.448,6.68-6.208,11.064H174.66v-8H158.66z      M230.66,480h-14.528c4.232-5.36,9.248-12.2,14.528-20.448V480z M302.66,344v4v132h-56v-48h-0.592     c8.56-17.672,16.304-38.688,20.744-62.536l-15.728-2.928c-11.336,60.88-46.664,103.232-55.872,113.44     c-45.376-0.68-73.536-14.752-86.48-23.256c67.208-42.672,66.648-69.064,66.04-96.928c-0.056-2.56-0.112-5.144-0.112-7.792h-0.408     c0.192-1.32,0.408-2.632,0.408-4v-12h79.776c-0.192,5.04-0.504,10.096-1.064,15.112l15.904,1.768     c0.624-5.608,0.952-11.248,1.152-16.88h32.232V344z M302.66,320h-52.688l11.712-11.712c7.888-7.888,13.168-17.656,15.536-28.288     h25.44V320z M302.66,256v8h-24.336c-0.768-4.384-3.016-8.224-6.208-11.064l11.976-35.92l19.712,3.288     c11.848,1.976,22.352,8.352,29.56,17.968c6,8,9.296,17.904,9.296,27.896V348c0,6.616-5.384,12-12,12c-6.616,0-12-5.384-12-12v-4     v-88H302.66z M318.66,470.368V392.08c18.336,21.528,42.768,41.64,63.968,55.464C370.036,453.76,347.836,463.272,318.66,470.368z"/>
		</g>
	</g>
</g>
<g>
</g>
<g>
</g>
<g>
</g>
<g>
</g>
<g>
</g>
<g>
</g>
<g>
</g>
<g>
</g>
<g>
</g>
<g>
</g>
<g>
</g>
<g>
</g>
<g>
</g>
<g>
</g>
<g>
</g>
</svg>
