<?xml version="1.0" encoding="iso-8859-1"?>
<!-- Generator: Adobe Illustrator 19.0.0, SVG Export Plug-In . SVG Version: 6.00 Build 0)  -->
<svg xmlns="http://www.w3.org/2000/svg" xmlns:xlink="http://www.w3.org/1999/xlink" version="1.1" id="Capa_1" x="0px" y="0px" viewBox="0 0 496 496" style="enable-background:new 0 0 496 496;" xml:space="preserve">
<g>
	<g>
		<g>
			<rect x="280" y="152" width="16" height="16"/>
			<rect x="200" y="152" width="16" height="16"/>
			<path d="M208,188c0,19.848,16.152,36,36,36c19.848,0,36-16.152,36-36v-4h-16v4c0,11.024-8.976,20-20,20s-20-8.976-20-20v-4h-16     V188z"/>
			<path d="M470.032,184c-12.968,0-25.688-3.528-36.808-10.192l-10.112-6.064c-8.44-5.072-18.104-7.744-27.936-7.744     c-14.504,0-28.136,5.648-38.392,15.904l-15.736,15.736c-2.672-7.288-7.08-13.888-13.056-19.224V120c17.648,0,32-14.352,32-32     c0-11.552-6.296-22.064-16.144-27.688C341.968,35.56,321.224,16,296,16c-3.704,0-7.44,0.464-11.152,1.384     C275.784,6.4,262.4,0,248,0c-14.4,0-27.784,6.4-36.848,17.384C207.44,16.464,203.704,16,200,16     c-25.224,0-45.968,19.56-47.856,44.312C142.296,65.936,136,76.448,136,88c0,17.648,14.352,32,32,32v52.408     c-5.976,5.336-10.384,11.936-13.056,19.224l-15.728-15.728C128.96,165.648,115.328,160,100.824,160     c-9.832,0-19.496,2.672-27.936,7.736l-10.12,6.064c-11.104,6.672-23.832,10.2-36.8,10.2C11.648,184,0,195.648,0,209.968     c0,11.936,8.088,22.304,19.672,25.192c4.072,1.024,8.192,1.824,12.328,2.52v7.008c0,9.432,3.672,18.304,10.344,24.968     C49.008,276.328,57.88,280,67.312,280h5.496c2.664,13.088,11.744,23.856,23.8,28.904l-18.8,37.592L57.392,326.08     C65.968,322.416,72,313.904,72,304c0-13.232-10.768-24-24-24H0v48c0,13.232,10.768,24,24,24c9.904,0,18.416-6.032,22.08-14.608     l24.184,24.184l-3.376,6.744C65,372.12,64,376.352,64,380.584C64,395.696,76.304,408,91.416,408h1.592     c6.368,0,12.456-2.296,17.344-6.336L128,419.312V440h16v-16h16v-16h-20.688L119.8,388.488l40.2-76.184V344v8v40h16v104h64v-64h16     v64h64V392h16v-40v-8v-31.704l43.488,82.392c4.92,8.208,13.928,13.312,23.504,13.312h1.592C419.696,408,432,395.696,432,380.584     c0-4.224-1-8.464-2.896-12.264l-29.712-59.416c12.048-5.048,21.128-15.816,23.8-28.904h5.496c9.432,0,18.304-3.672,24.968-10.344     C460.328,262.992,464,254.12,464,244.688v-7.008c4.136-0.696,8.256-1.496,12.328-2.512c11.584-2.896,19.672-13.264,19.672-25.2     C496,195.648,484.352,184,470.032,184z M48,312H32v16c0,4.408-3.592,8-8,8s-8-3.592-8-8v-32h32c4.408,0,8,3.592,8,8     C56,308.408,52.408,312,48,312z M152,88c0-6.736,4.336-12.776,10.776-15.016l5.6-1.952l-0.24-5.928     C168.12,64.6,168.064,64.12,168,64c0-21.376,21.536-38.16,43.376-29.8l6.12,2.344L221,31c5.936-9.392,16.024-15,27-15     s21.064,5.608,27,15l3.504,5.544l6.12-2.344c21.848-8.36,43.376,8.496,43.384,29.432l-0.384,7.4l5.6,1.952     C339.664,75.224,344,81.264,344,88c0,10.816-11.304,19.088-21.952,14.816l-8.344-3.344l-2.352,8.68     C309.464,115.128,303.152,120,296,120c-4.968,0-8.528-2.272-10.648-4.176L280,111l-5.352,4.824     c-2.12,1.904-5.68,4.176-10.648,4.176c-4.968,0-8.528-2.272-10.648-4.176L248,111l-5.352,4.824     c-2.12,1.904-5.68,4.176-10.648,4.176s-8.528-2.272-10.648-4.176L216,111l-5.352,4.824c-2.12,1.904-5.68,4.176-10.648,4.176     c-7.152,0-13.464-4.872-15.352-11.848l-2.352-8.68l-8.344,3.344C163.304,107.08,152,98.816,152,88z M180.824,182.56l3.176-2.4     v-48.52c4.752,2.784,10.24,4.36,16,4.36c5.64,0,11.144-1.52,16-4.368c9.712,5.688,22.288,5.688,32,0     c9.712,5.688,22.288,5.688,32,0c4.856,2.848,10.36,4.368,16,4.368c5.76,0,11.248-1.576,16-4.36v48.52l3.176,2.4     C323.328,188.72,328,198,328,208c0,17.648-14.352,32-32,32h-96c-17.648,0-32-14.352-32-32     C168,197.992,172.672,188.72,180.824,182.56z M89.472,280H104v-16H67.312c-5.08,0-10.064-2.064-13.656-5.656     C50.064,254.752,48,249.768,48,244.688V239.6c3.648,0.248,7.296,0.4,10.952,0.4H80v-16H58.952c-11.928,0-23.832-1.464-35.4-4.36     c-4.448-1.112-7.552-5.088-7.552-9.672c0-5.496,4.472-9.968,9.968-9.968c15.864,0,31.44-4.312,45.032-12.48l10.12-6.064     c5.952-3.568,12.768-5.456,19.704-5.456c10.232,0,19.84,3.984,27.08,11.216l24.272,24.272c0.44,6.12,2.04,11.912,4.576,17.192     l-26.712,13.36l-26.216,52.432C97.128,292.024,91.872,286.72,89.472,280z M93.008,392h-1.592C85.12,392,80,386.88,80,380.584     c0-1.76,0.416-3.528,1.208-5.104l0.984-1.968l16.76,16.76C97.184,391.352,95.144,392,93.008,392z M224,480h-32v-88h16v40h16V480z      M176,376v-24h32v24H176z M224,416v-64h48v64H224z M304,480h-32v-48h16v-40h16V480z M320,376h-32v-24h32V376z M414.792,375.472     c0.792,1.584,1.208,3.352,1.208,5.112c0,6.296-5.12,11.416-11.416,11.416h-1.592c-3.992,0-7.736-2.128-9.576-5.16L336,278.024     V272h-16v64h-32h-80h-32v-64h-16v6.024l-52.032,98.632l-18.232-18.232L141.96,253.96l24.104-12.048     C174.752,250.608,186.76,256,200,256h96c13.24,0,25.248-5.392,33.936-14.088l24.104,12.048L414.792,375.472z M472.448,219.64     c-11.568,2.896-23.472,4.36-35.4,4.36H416v16h21.048c3.656,0,7.304-0.152,10.952-0.4v5.088c0,5.08-2.064,10.064-5.656,13.656     c-3.592,3.592-8.576,5.656-13.656,5.656H392v16h14.528c-2.392,6.72-7.656,12.024-14.344,14.472l-26.216-52.432l-26.712-13.36     c2.536-5.28,4.128-11.072,4.576-17.192l24.272-24.272c7.232-7.232,16.84-11.216,27.072-11.216c6.936,0,13.752,1.888,19.704,5.456     l10.112,6.064c13.6,8.168,29.176,12.48,45.04,12.48c5.496,0,9.968,4.472,9.968,9.968C480,214.552,476.896,218.528,472.448,219.64     z"/>
			<rect x="272" y="272" width="16" height="16"/>
			<rect x="208" y="272" width="16" height="16"/>
		</g>
	</g>
</g>
<g>
</g>
<g>
</g>
<g>
</g>
<g>
</g>
<g>
</g>
<g>
</g>
<g>
</g>
<g>
</g>
<g>
</g>
<g>
</g>
<g>
</g>
<g>
</g>
<g>
</g>
<g>
</g>
<g>
</g>
</svg>
