<?xml version="1.0" encoding="iso-8859-1"?>
<!-- Generator: Adobe Illustrator 19.0.0, SVG Export Plug-In . SVG Version: 6.00 Build 0)  -->
<svg xmlns="http://www.w3.org/2000/svg" xmlns:xlink="http://www.w3.org/1999/xlink" version="1.1" id="Capa_1" x="0px" y="0px" viewBox="0 0 496 496" style="enable-background:new 0 0 496 496;" xml:space="preserve">
<g>
	<g>
		<g>
			<rect x="260.003" y="88" width="16" height="16"/>
			<rect x="164.003" y="88" width="16" height="16"/>
			<rect x="284.003" y="240" width="16" height="24"/>
			<rect x="148.003" y="240" width="16" height="24"/>
			<rect x="260.003" y="336" width="16" height="24"/>
			<rect x="164.003" y="336" width="16" height="24"/>
			<rect x="268.003" y="416" width="16" height="24"/>
			<rect x="156.003" y="416" width="16" height="24"/>
			<rect x="212.003" y="216" width="16" height="24"/>
			<rect x="212.003" y="288" width="16" height="24"/>
			<path d="M468.291,102.512c-4.768-4.256-11.12-6.312-17.36-5.576c-69.36,7.824-96.512,62.776-106.12,91.864l-16.344-24.52     l26.344-8.784l-20.248-20.248L364.003,96h-20.656c9.4-24.512,25.016-46.04,45.6-62.504c4.488-3.592,7.056-8.944,7.056-14.688     C396.003,8.44,387.563,0,377.195,0h-2.6c-33.856,0-67.296,5.36-99.448,15.888C259.147,5.84,240.251,0,220.003,0     s-39.144,5.84-55.144,15.888C132.707,5.36,99.259,0,65.411,0h-2.6C52.443,0,44.003,8.44,44.003,18.808     c0,5.744,2.568,11.096,7.056,14.688c20.584,16.472,36.2,38,45.6,62.504H68.003l29.44,39.248l-20.248,20.248l26.344,8.784     L85.059,192h21.72c-2.576,0.968-5.168,1.92-7.616,3.136c-19.448,9.664-34.36,27.032-40.904,47.656L21.395,358.84     c-1.912,6.032-1.864,12.4,0.152,18.4l0.776,2.336C26.419,391.792,37.835,400,50.723,400c13.168,0,24.976-8.824,28.712-21.456     l28.472-96.232l16.096,47.024V496h79.856v-95.856c0-8.904,7.248-16.144,16.144-16.144s16.144,7.24,16.144,16.144V496h79.856     V366.88c15.44-2.544,29.936-6.392,38.496-8.872l6.08,20.544C364.307,391.176,376.115,400,389.283,400     c12.888,0,24.304-8.208,28.408-20.44l0.776-2.312c2.016-6.008,2.064-12.376,0.152-18.416l-5.72-18.008     c14.192-7.112,47.104-29.536,47.104-84.824c0-28-5.208-40.752-9.808-52c-3.456-8.488-6.192-15.184-6.192-28     c0-2.872,0.392-5.544,0.96-8.12l12.04-9.632l-4.896-6.112c4.488-6.176,9.968-10.736,14.072-13.616     c6.152-4.312,9.824-11.336,9.824-18.784C476.003,113.168,473.187,106.896,468.291,102.512z M343.803,192     c-0.456,1.464-0.864,2.832-1.216,4.112c-0.592-0.312-1.144-0.68-1.736-0.976c-2.456-1.216-5.04-2.168-7.616-3.136H343.803z      M326.283,96h-2.584c-0.784-10.288-3.104-20.152-6.68-29.392c8.264-6.816,18.528-10.536,29.36-10.592     C337.923,68.288,331.163,81.72,326.283,96z M374.595,16h2.6c1.552,0,2.808,1.256,2.808,2.808c0,0.856-0.384,1.664-1.056,2.192     c-7.216,5.776-13.824,12.176-19.912,19h-12.408c-13.384,0-26.088,4.232-36.704,11.952c-5.208-8.968-11.656-17.12-19.2-24.136     C317.995,19.976,346.147,16,374.595,16z M80.971,40c-6.088-6.824-12.696-13.224-19.912-19c-0.672-0.536-1.056-1.336-1.056-2.192     c0-1.552,1.256-2.808,2.808-2.808h2.6c28.448,0,56.608,3.976,83.872,11.816c-7.552,7.016-13.992,15.168-19.2,24.136     C119.467,44.232,106.763,40,93.379,40H80.971z M93.627,56.016c10.84,0.056,21.104,3.784,29.36,10.592     c-3.576,9.24-5.888,19.104-6.68,29.392h-2.592C108.843,81.72,102.075,68.288,93.627,56.016z M100.003,112h32v-8     c0-48.52,39.48-88,88-88s88,39.48,88,88v8h24l-18.56,24.752l11.752,11.752l-21.656,7.216l13.52,20.28h-46.688l-8.12,9.288     c-7.208,8.224-20.984,8.664-28.696,0.96l-10.536-10.536c6.136-0.68,11.856-3.272,16.296-7.704l13.376-13.376     c4.72-4.72,7.312-10.992,7.312-17.664c0-10.6-6.664-19.616-16-23.232V91.312l21.656-21.656l-11.312-11.312l-26.344,26.344V112     h-16V84.688l-26.344-26.344l-11.312,11.312l21.656,21.656v22.424c-9.336,3.616-16,12.632-16,23.232     c0,6.672,2.592,12.944,7.312,17.656L200.691,168c4.44,4.432,10.152,7.024,16.296,7.704l-10.544,10.544     c-7.72,7.704-21.496,7.256-28.68-0.96L169.627,176h-54.68l13.52-20.28l-21.656-7.216l11.752-11.752L100.003,112z M212.003,156.68     l-13.376-13.376c-1.696-1.688-2.624-3.936-2.624-6.336c0-4.944,4.024-8.968,8.968-8.968h30.064c4.944,0,8.968,4.024,8.968,8.968     c0,2.4-0.928,4.648-2.624,6.344l-13.376,13.368C223.755,160.928,216.251,160.928,212.003,156.68z M316.003,350.656v-21.32     l16.104-47.016l17.848,60.336C342.283,344.872,329.563,348.264,316.003,350.656z M403.291,372.176l-0.776,2.312     c-1.904,5.688-7.224,9.512-13.232,9.512c-6.136,0-11.624-4.112-13.368-9.992L333.211,229.68l-33.208,96.984V480h-47.856v-79.856     c0-17.728-14.424-32.144-32.144-32.144c-17.72,0-32.144,14.416-32.144,32.144V480h-47.856V326.664l-33.208-96.984L64.091,374.008     c-1.744,5.88-7.24,9.992-13.368,9.992c-6.008,0-11.328-3.824-13.232-9.504l-0.776-2.336c-0.928-2.768-0.952-5.696-0.072-8.48     l36.856-116.04c5.24-16.512,17.184-30.424,32.784-38.168c2.728-1.36,5.584-2.536,8.488-3.496L156.915,192h5.456l3.344,3.832     C172.499,203.56,182.267,208,192.547,208c9.52,0,18.48-3.704,25.2-10.44l2.256-2.248l2.24,2.24     c6.736,6.736,15.688,10.448,25.216,10.448c10.272,0,20.056-4.432,26.832-12.176l3.344-3.824h5.456l42.152,13.968     c2.896,0.96,5.76,2.136,8.488,3.496c15.592,7.744,27.536,21.664,32.784,38.168l36.856,116.04     C404.243,366.464,404.219,369.392,403.291,372.176z M407.979,325.344l-26.224-82.552c-4.624-14.568-13.488-27.448-25.112-37.2     c1.104-4.904,3.608-14.336,8.496-25.432l10.808,21.624l1.744-0.584l-10.688,8.552l10,12.496l24.72-19.776l5.216,15.648     l27.944-9.312c0.168,0.408,0.336,0.832,0.496,1.24c4.24,10.368,8.624,21.096,8.624,45.952     C444.003,299.92,419.899,318.72,407.979,325.344z M415.043,191.816l13.12-10.496c0.264,4.656,0.888,8.664,1.712,12.288     l-12.808,4.272L415.043,191.816z M456.995,125.416c-8.216,5.768-20.616,16.792-26.144,33.256l-21.2,16.96l-0.584-1.76     l-25.008,8.336l-9.72-19.44c14.008-22.384,38-45.384,78.392-49.936c2.4-0.272,4.096,0.896,4.904,1.616     c1.504,1.344,2.368,3.272,2.368,5.288C460.003,121.976,458.875,124.096,456.995,125.416z"/>
		</g>
	</g>
</g>
<g>
</g>
<g>
</g>
<g>
</g>
<g>
</g>
<g>
</g>
<g>
</g>
<g>
</g>
<g>
</g>
<g>
</g>
<g>
</g>
<g>
</g>
<g>
</g>
<g>
</g>
<g>
</g>
<g>
</g>
</svg>
