<?xml version="1.0" encoding="iso-8859-1"?>
<!-- Generator: Adobe Illustrator 19.0.0, SVG Export Plug-In . SVG Version: 6.00 Build 0)  -->
<svg xmlns="http://www.w3.org/2000/svg" xmlns:xlink="http://www.w3.org/1999/xlink" version="1.1" id="Capa_1" x="0px" y="0px" viewBox="0 0 496 496" style="enable-background:new 0 0 496 496;" xml:space="preserve">
<g>
	<g>
		<g>
			<rect x="240" y="144" width="16" height="16"/>
			<path d="M256,112v16h8c26.472,0,48-21.528,48-48V64h-8C277.528,64,256,85.528,256,112z M295.984,81.016     c-0.456,14.432-10.504,26.488-23.968,29.968C272.472,96.552,282.52,84.496,295.984,81.016z"/>
			<path d="M240,112c0-26.472-21.528-48-48-48h-8v16c0,26.472,21.528,48,48,48h8V112z M200.016,81.016     c13.464,3.488,23.512,15.536,23.968,29.968C210.52,107.504,200.472,95.448,200.016,81.016z"/>
			<rect x="272" y="248" width="16" height="16"/>
			<rect x="208" y="248" width="16" height="16"/>
			<path d="M360,0c-13.232,0-24,10.768-24,24c0,10.416,6.712,19.216,16,22.528v23.584c0,3.048-1.696,5.792-4.424,7.152     l-11.824,5.912C333.232,36.904,294.896,0,248,0s-85.232,36.904-87.752,83.176l-11.824-5.912c-2.728-1.36-4.424-4.104-4.424-7.152     V46.528c9.288-3.312,16-12.112,16-22.528c0-13.232-10.768-24-24-24s-24,10.768-24,24c0,10.416,6.712,19.216,16,22.528v23.584     c0,9.152,5.088,17.368,13.264,21.464L160,100.944V104c0,30.816,15.952,57.936,40,73.664v15.184l-29.656,3.312     C150.768,198.952,136,215.976,136,235.752V340c0,15.44,12.56,28,28,28c4.312,0,8.352-1.064,12-2.808V496h64V368     c0-4.408,3.584-8,8-8c4.416,0,8,3.592,8,8v128h64V365.192c3.648,1.744,7.688,2.808,12,2.808c15.44,0,28-12.56,28-28V235.752     c0-19.776-14.768-36.8-34.584-39.632L296,192.84v-15.184c24.048-15.728,40-42.848,40-73.664v-3.056l18.736-9.368     C362.912,87.488,368,79.264,368,70.112V46.528c9.288-3.312,16-12.112,16-22.528C384,10.768,373.232,0,360,0z M136,32     c-4.416,0-8-3.592-8-8s3.584-8,8-8s8,3.592,8,8S140.416,32,136,32z M323.392,211.992c11.752,1.68,20.608,11.896,20.608,23.76V340     c0,6.616-5.384,12-12,12c-6.616,0-12-5.384-12-12v-92h-16v92c0,1.368,0.216,2.68,0.408,4H304v136h-32V368     c0-13.232-10.768-24-24-24s-24,10.768-24,24v112h-32V344h-0.408c0.192-1.32,0.408-2.632,0.408-4v-92h-16v92     c0,6.616-5.384,12-12,12c-6.616,0-12-5.384-12-12V235.752c0-11.864,8.856-22.08,20.368-23.728L216,207.16v-21.272     c9.936,3.896,20.704,6.112,32,6.112s22.064-2.216,32-6.112v21.272L323.392,211.992z M320,104c0,39.696-32.296,72-72,72     c-39.704,0-72-32.304-72-72V88c0-39.696,32.296-72,72-72s72,32.304,72,72V104z M360,32c-4.416,0-8-3.592-8-8s3.584-8,8-8     c4.416,0,8,3.592,8,8S364.416,32,360,32z"/>
		</g>
	</g>
</g>
<g>
</g>
<g>
</g>
<g>
</g>
<g>
</g>
<g>
</g>
<g>
</g>
<g>
</g>
<g>
</g>
<g>
</g>
<g>
</g>
<g>
</g>
<g>
</g>
<g>
</g>
<g>
</g>
<g>
</g>
</svg>
