<?xml version="1.0" encoding="iso-8859-1"?>
<!-- Generator: Adobe Illustrator 19.0.0, SVG Export Plug-In . SVG Version: 6.00 Build 0)  -->
<svg xmlns="http://www.w3.org/2000/svg" xmlns:xlink="http://www.w3.org/1999/xlink" version="1.1" id="Capa_1" x="0px" y="0px" viewBox="0 0 496 496" style="enable-background:new 0 0 496 496;" xml:space="preserve">
<g>
	<g>
		<g>
			<path d="M432,120V24h-48v16h-48c0-22.056-17.944-40-40-40h-96c-22.056,0-40,17.944-40,40H93.576L64,59.72v24.56L93.576,104H160     v24h-24.68c-22.112,0-42.912,11.784-54.296,30.752C75.12,168.592,72,179.848,72,191.32V328h16v28c0,19.848,16.152,36,36,36     c7.4,0,14.272-2.256,20-6.096V496h96h8h104V385.904c5.728,3.84,12.6,6.096,20,6.096c19.848,0,36-16.152,36-36v-28h16V191.32     c0-11.472-3.12-22.728-9.024-32.576C403.592,139.784,382.792,128,360.68,128H336v-24h48v16H432z M400,40h16v64h-16V40z M176,40     c0-13.232,10.768-24,24-24h96c13.232,0,24,10.768,24,24v96c0,39.704-32.296,72-72,72c-39.704,0-72-32.296-72-72V40z M272,220.592     V240c0,13.232-10.768,24-24,24s-24-10.768-24-24v-19.408c7.64,2.168,15.672,3.408,24,3.408S264.36,222.76,272,220.592z      M97.344,87.28L80,75.72v-7.44L98.424,56h4.136L97.344,87.28z M129.224,88H113.44l5.336-32h15.784L129.224,88z M145.44,88     l5.336-32H160v32H145.44z M144,336v20c0,11.032-8.968,20-20,20s-20-8.968-20-20v-28h40V336z M144,312H88V191.32     c0-8.568,2.336-16.984,6.744-24.344C103.248,152.808,118.8,144,135.32,144h25.088c2.784,30.704,21.4,56.848,47.592,70.288V344     h-48v-8V224h-16V312z M240,480h-80V360h64v-24h16V480z M336,480h-80V336h16v24h64V480z M392,356c0,11.032-8.968,20-20,20     c-11.032,0-20-8.968-20-20v-20v-8h40V356z M360.68,144c16.52,0,32.072,8.808,40.576,22.968     c4.408,7.368,6.744,15.784,6.744,24.352V312h-56v-88h-16v112v8h-48v-40h-16v16h-48v-48.208c6.704,5.08,14.96,8.208,24,8.208     s17.296-3.128,24-8.208V288h16v-73.712c26.2-13.44,44.808-39.584,47.592-70.288H360.68z M345.224,88H336V56h14.56L345.224,88z      M361.44,88l5.336-32H384v32H361.44z"/>
			<rect x="216" y="144" width="64" height="16"/>
			<polygon points="208,80 224,80 224,64 240,64 240,80 256,80 256,64 272,64 272,80 288,80 288,64 304,64 304,48 288,48 288,32      272,32 272,48 256,48 256,32 240,32 240,48 224,48 224,32 208,32 208,48 192,48 192,64 208,64    "/>
			<rect x="280" y="104" width="16" height="16"/>
			<rect x="200" y="104" width="16" height="16"/>
		</g>
	</g>
</g>
<g>
</g>
<g>
</g>
<g>
</g>
<g>
</g>
<g>
</g>
<g>
</g>
<g>
</g>
<g>
</g>
<g>
</g>
<g>
</g>
<g>
</g>
<g>
</g>
<g>
</g>
<g>
</g>
<g>
</g>
</svg>
