<?xml version="1.0" encoding="iso-8859-1"?>
<!-- Generator: Adobe Illustrator 19.0.0, SVG Export Plug-In . SVG Version: 6.00 Build 0)  -->
<svg xmlns="http://www.w3.org/2000/svg" xmlns:xlink="http://www.w3.org/1999/xlink" version="1.1" id="Capa_1" x="0px" y="0px" viewBox="0 0 498.032 498.032" style="enable-background:new 0 0 498.032 498.032;" xml:space="preserve">
<g>
	<g>
		<g>
			<path d="M138.032,161.016v-16c0-13.232-10.768-24-24-24s-24,10.768-24,24v16c0,13.232,10.768,24,24,24     S138.032,174.248,138.032,161.016z M122.032,161.016c0,4.416-3.592,8-8,8s-8-3.584-8-8v-16c0-4.416,3.592-8,8-8s8,3.584,8,8     V161.016z"/>
			<path d="M194.032,185.016c13.232,0,24-10.768,24-24v-16c0-13.232-10.768-24-24-24s-24,10.768-24,24v16     C170.032,174.248,180.8,185.016,194.032,185.016z M186.032,145.016c0-4.416,3.592-8,8-8s8,3.584,8,8v16c0,4.416-3.592,8-8,8     s-8-3.584-8-8V145.016z"/>
			<path d="M412.688,59.208l4.792-22.76c0.368-1.736,0.552-3.512,0.552-5.264V26.68c0-14.152-11.512-25.664-25.664-25.664     c-12.064,0-22.632,8.568-25.12,20.376l-56.272,267.296c-17.096-11.136-32.312-24.696-45.088-40.664     c-0.832-1.04-1.728-2.008-2.648-2.952l26.688-34.312c15.544-19.992,24.104-44.944,24.104-70.264     c0-20.896-5.864-41.648-16.68-59.48h38.8c9.856,0,17.88-8.024,17.88-17.888c0-6.816-3.784-12.936-9.888-16L304.448,27.28     C270.072,10.096,231.608,1.016,193.2,1.016h-15.648c-47.984,0-94.712,16.912-131.584,47.632     C18.048,71.92,2.032,106.112,2.032,142.464c0,24.184,7.088,47.608,20.504,67.744l24.512,36.768     c-5.064,3.816-9.68,8.248-13.544,13.408c-4.416,5.888-7.832,12.424-10.168,19.408L0,349.808l22.48,8.432L4.928,393.336     c-1.896,3.792-2.896,8.032-2.896,12.264c0,15.12,12.304,27.416,27.416,27.416h1.592c0.112,0,0.216-0.024,0.328-0.024     c-8.736,14.808-18,29.312-27.888,43.432l-1.448,2.072v18.52h296v-0.168c0.56,0.04,1.096,0.168,1.664,0.168     c12.064,0,22.632-8.568,25.12-20.376l19.32-91.768c6.24-5.752,9.896-13.824,9.896-22.48c0-4.232-0.904-8.344-2.592-12.224     l37.576-178.488c53.328,38.488,85.28,111.6,85.664,112.496l2.08,4.84h21.272v-88C498.032,123.216,449.504,80.456,412.688,59.208z      M382.912,24.688c0.936-4.448,4.912-7.672,9.456-7.672c5.328,0,9.664,4.336,9.664,9.664v4.496c0,0.656-0.072,1.328-0.208,1.984     l-3.856,18.312c-7.832-3.744-14.44-6.328-19.024-7.952L382.912,24.688z M35.856,201.328     C24.2,183.84,18.032,163.48,18.032,142.464c0-31.584,13.92-61.296,38.176-81.512c34-28.336,77.096-43.936,121.336-43.936h15.648     c35.944,0,71.936,8.496,104.096,24.568l39.688,19.84c0.656,0.336,1.056,0.984,1.056,1.704c0,1.04-0.848,1.888-1.888,1.888H266.04     l12.304,16.424c12.696,16.92,19.688,37.888,19.688,59.056c0,21.784-7.36,43.24-20.736,60.44l-27.352,35.168     c-4.784-1.984-9.944-3.088-15.288-3.088h-5.848c18.408-19.152,29.224-44.888,29.224-72c0-28.528-11.328-55.144-31.88-74.936     C205.6,66.304,178.552,56,149.976,57.096c-53.864,2.056-98.68,47.576-99.912,101.48c-0.656,28.36,10.432,55.216,29.776,74.984     c-6.576,0.824-12.936,2.68-18.952,5.32L35.856,201.328z M162.032,241.016v32h-16v-32h-16v32h-8c-4.408,0-8-3.584-8-8v-25.552     l-3.992-2.312c-27.872-16.152-44.728-46.12-43.992-78.2c1.048-45.608,38.96-84.128,84.52-85.864     c1.176-0.048,2.328-0.072,3.488-0.072c22.896,0,44.448,8.656,61,24.592c17.392,16.752,26.976,39.264,26.976,63.408     c0,31.232-16.864,60.408-44.008,76.136l-3.992,2.312v25.552c0,4.416-3.592,8-8,8h-8v-32H162.032z M31.04,417.016h-1.592     c-6.296,0-11.416-5.12-11.416-11.416c0-1.768,0.416-3.528,1.208-5.112l18.304-36.616l25.104,9.416     c-1.408,3.064-2.928,6.072-4.376,9.104L40.824,411.48C38.776,414.888,35.032,417.016,31.04,417.016z M19.768,481.008     c19.936-28.976,37.464-59.448,52.64-91.072l0.48-0.808l-0.08-0.048c12.128-25.352,22.768-51.432,31.688-78.184l1.12-3.36     l-15.176-5.064l-1.12,3.36c-5.968,17.912-12.776,35.488-20.232,52.776l-49.032-18.384l18.464-55.392     c1.784-5.352,4.4-10.36,7.784-14.864c9.848-13.128,25.52-20.96,41.92-20.96h9.808v16c0,13.232,10.768,24,24,24h64     c13.232,0,24-10.768,24-24v-16h24.624c7.328,0,14.16,3.28,18.744,9.008c15.136,18.92,33.336,34.864,54.04,47.488l-0.744,3.528     l-41.08,41.072L220.8,311.696c-0.672-1.96-1.4-3.896-2.056-5.864l-1.12-3.36l-15.176,5.064l1.12,3.36     c17.52,52.56,41.504,102.864,71.232,149.632l-0.216,1.04c-0.368,1.752-0.552,3.528-0.552,5.28v4.496     c0,3.424,0.704,6.68,1.92,9.664H19.768z M300.656,337.704l-3.936,18.688l-7.376-7.376L300.656,337.704z M232.24,342.592     l34.208,29.328l11.584-11.584l14.752,14.752l-13.216,62.8C261.264,407.448,245.44,375.552,232.24,342.592z M309.16,473.344     c-0.944,4.448-4.92,7.672-9.464,7.672c-5.328,0-9.664-4.336-9.664-9.664v-4.496c0-0.656,0.072-1.328,0.208-1.984l65.44-310.856     c6.528,2.24,12.84,5.104,18.92,8.48L309.16,473.344z M482.032,262.512c-16.376-31.896-59.328-103.464-123.04-124.208     l16.64-79.024c25.552,9.352,106.4,46.488,106.4,141.736V262.512z"/>
			<rect x="385.29" y="88.584" transform="matrix(-0.9839 -0.1787 0.1787 -0.9839 760.0604 294.4149)" width="16" height="48.784"/>
			<rect x="130.032" y="193.016" width="16" height="16"/>
			<rect x="162.032" y="193.016" width="16" height="16"/>
		</g>
	</g>
</g>
<g>
</g>
<g>
</g>
<g>
</g>
<g>
</g>
<g>
</g>
<g>
</g>
<g>
</g>
<g>
</g>
<g>
</g>
<g>
</g>
<g>
</g>
<g>
</g>
<g>
</g>
<g>
</g>
<g>
</g>
</svg>
